Coordinates
version=1
nRows=14
nColumns=40
inDegrees=yes

Units are S.I. units (second, meters, Newtons, ...)
If the header above contains a line with 'inDegrees', this indicates whether rotational values are in degrees (yes) or radians (no).

endheader
time	pelvis_tilt	pelvis_list	pelvis_rotation	pelvis_tx	pelvis_ty	pelvis_tz	hip_flexion_r	hip_adduction_r	hip_rotation_r	knee_angle_r	knee_angle_r_beta	ankle_angle_r	subtalar_angle_r	mtp_angle_r	hip_flexion_l	hip_adduction_l	hip_rotation_l	knee_angle_l	knee_angle_l_beta	ankle_angle_l	subtalar_angle_l	mtp_angle_l	lumbar_extension	lumbar_bending	lumbar_rotation	arm_flex_r	arm_add_r	arm_rot_r	elbow_flex_r	pro_sup_r	wrist_flex_r	wrist_dev_r	arm_flex_l	arm_add_l	arm_rot_l	elbow_flex_l	pro_sup_l	wrist_flex_l	wrist_dev_l
      9.32500000	     -9.03304263	    -18.00669251	    -92.50971019	      0.44527178	      0.92577629	     -0.46918107	    -29.98630663	     -8.29017403	    -39.95648183	     25.96075912	      0.45310072	     30.95790565	      0.00000000	      0.00000000	      8.71850058	     29.97669086	     39.89694725	     54.00659924	      0.94259297	     -5.96783844	      0.00000000	      0.00000000	     89.99013638	     89.98549584	     89.99013429	     53.85175354	     60.55673683	     41.85585627	     11.01861741	      1.42769942	      0.00000000	      0.00000000	    -54.04764059	    -21.62129915	    -88.52827102	     82.75891437	     89.22134739	      0.00000000	      0.00000000
      9.33000000	     -9.11700273	    -17.90375637	    -92.47131705	      0.44544433	      0.92621913	     -0.46920802	    -29.98625229	     -8.05511104	    -39.95645816	     25.59640638	      0.44674157	     30.81095661	      0.00000000	      0.00000000	      8.88624111	     29.97563607	     39.90090903	     54.18026265	      0.94562397	     -6.21250059	      0.00000000	      0.00000000	     89.99013489	     89.98545317	     89.99013284	     53.71455131	     60.55381708	     41.97813372	     11.04166023	      1.42781175	      0.00000000	      0.00000000	    -54.18788726	    -21.39827245	    -88.50299144	     82.88966953	     89.24586649	      0.00000000	      0.00000000
      9.33500000	     -9.15972545	    -17.74545701	    -92.41997772	      0.44564830	      0.92678318	     -0.46926397	    -29.98623122	     -7.78002590	    -39.95631535	     25.00007417	      0.43633361	     30.72958441	      0.00000000	      0.00000000	      9.07486684	     29.97433010	     39.90525920	     54.21941226	      0.94630726	     -6.55440458	      0.00000000	      0.00000000	     89.99013528	     89.98538075	     89.99013333	     53.51893537	     60.55716068	     42.33881612	     11.09531231	      1.42368826	      0.00000000	      0.00000000	    -54.42848758	    -21.12546183	    -88.63232642	     83.10337260	     89.21906956	      0.00000000	      0.00000000
      9.34000000	     -9.25067567	    -17.66069942	    -92.35519642	      0.44585856	      0.92713293	     -0.46941378	    -29.98617052	     -7.53726707	    -39.95630183	     24.69816887	      0.43106437	     30.54727984	      0.00000000	      0.00000000	      9.22969236	     29.97299318	     39.90888422	     54.41987667	      0.94980603	     -6.76456670	      0.00000000	      0.00000000	     89.99011390	     89.98529170	     89.99011195	     53.36167506	     60.55781714	     42.48293886	     11.08062251	      1.42227549	      0.00000000	      0.00000000	    -54.59413287	    -20.87664461	    -88.63130521	     83.31469221	     89.21925633	      0.00000000	      0.00000000
      9.34500000	     -9.29455521	    -17.50921397	    -92.28419558	      0.44611529	      0.92766465	     -0.46959222	    -29.98610144	     -7.25941155	    -39.95619780	     24.12176015	      0.42100414	     30.38294764	      0.00000000	      0.00000000	      9.41824639	     29.97130991	     39.91279250	     54.48066754	      0.95086703	     -7.04664801	      0.00000000	      0.00000000	     89.99010523	     89.98520126	     89.99010327	     53.18070378	     60.59879738	     42.74208146	     11.08604046	      1.42174477	      0.00000000	      0.00000000	    -54.86037958	    -20.60396396	    -88.68971500	     83.51245907	     89.21133134	      0.00000000	      0.00000000
      9.35000000	     -9.32850278	    -17.33446046	    -92.21863101	      0.44639602	      0.92821828	     -0.46971814	    -29.98604971	     -6.96147406	    -39.95611340	     23.46221904	      0.40949297	     30.30869670	      0.00000000	      0.00000000	      9.62567712	     29.96940186	     39.91637496	     54.51109582	      0.95139810	     -7.36526615	      0.00000000	      0.00000000	     89.99009532	     89.98512174	     89.99009345	     52.98404653	     60.58075529	     43.32126803	     11.17677185	      1.42421215	      0.00000000	      0.00000000	    -55.09341528	    -20.33447401	    -88.78649139	     83.66742311	     89.21479825	      0.00000000	      0.00000000
      9.35500000	     -9.38119513	    -17.19803648	    -92.15358209	      0.44666820	      0.92878303	     -0.46985724	    -29.98598970	     -6.68577317	    -39.95603334	     22.92752002	      0.40016071	     30.11987878	      0.00000000	      0.00000000	      9.80379620	     29.96733275	     39.91921048	     54.59853982	      0.95292429	     -7.65753666	      0.00000000	      0.00000000	     89.99008206	     89.98503071	     89.99008023	     52.81341030	     60.56904288	     43.74230670	     11.22676297	      1.42950718	      0.00000000	      0.00000000	    -55.33727517	    -20.04424703	    -88.82519476	     83.87446034	     89.21442175	      0.00000000	      0.00000000
      9.36000000	     -9.46185827	    -17.09337343	    -92.08652732	      0.44694711	      0.92921342	     -0.47002857	    -29.98591228	     -6.42364976	    -39.95610191	     22.53328982	      0.39328010	     29.92049051	      0.00000000	      0.00000000	      9.97382901	     29.96500103	     39.92205860	     54.75938644	      0.95573159	     -7.92681881	      0.00000000	      0.00000000	     89.99005468	     89.98493695	     89.99005291	     52.67192767	     60.58899165	     43.91403981	     11.21758441	      1.43169247	      0.00000000	      0.00000000	    -55.53689586	    -19.75077083	    -88.83077294	     84.12408981	     89.23036987	      0.00000000	      0.00000000
      9.36500000	     -9.50887337	    -16.92342654	    -92.02208696	      0.44721137	      0.92981188	     -0.47017345	    -29.98583188	     -6.11455803	    -39.95601532	     21.87652688	      0.38181742	     29.70728710	      0.00000000	      0.00000000	     10.18026317	     29.96233804	     39.92468283	     54.80521670	      0.95653148	     -8.29382356	      0.00000000	      0.00000000	     89.99004296	     89.98483165	     89.99004126	     52.50234551	     60.63749218	     44.15249103	     11.22579176	      1.43545735	      0.00000000	      0.00000000	    -55.81297678	    -19.42519075	    -88.87407168	     84.34621328	     89.23315327	      0.00000000	      0.00000000
      9.37000000	     -9.52543700	    -16.73042279	    -91.95770186	      0.44746569	      0.93062086	     -0.47034623	    -29.98580141	     -5.80227974	    -39.95581816	     21.10511435	      0.36835373	     29.54987688	      0.00000000	      0.00000000	     10.38355581	     29.95884130	     39.92778186	     54.75429868	      0.95564279	     -8.67531170	      0.00000000	      0.00000000	     89.99003852	     89.98472296	     89.99003688	     52.29322088	     60.64736947	     44.66927114	     11.29718777	      1.43822044	      0.00000000	      0.00000000	    -56.02852988	    -19.12919493	    -88.98581624	     84.47403476	     89.20602363	      0.00000000	      0.00000000
      9.37500000	     -9.59802776	    -16.60550437	    -91.89324099	      0.44771596	      0.93117714	     -0.47047346	    -29.98568673	     -5.52755004	    -39.95581553	     20.64247265	      0.36027911	     29.27812994	      0.00000000	      0.00000000	     10.56928578	     29.95523412	     39.92990499	     54.88971238	      0.95800621	     -8.97475099	      0.00000000	      0.00000000	     89.99002073	     89.98461778	     89.99001915	     52.11476977	     60.65735114	     44.90705774	     11.30703724	      1.44008602	      0.00000000	      0.00000000	    -56.19943627	    -18.79094815	    -88.97355659	     84.71162625	     89.21100271	      0.00000000	      0.00000000
      9.38000000	     -9.63138109	    -16.42376468	    -91.83461145	      0.44794944	      0.93192393	     -0.47058833	    -29.98565458	     -5.21835130	    -39.95571659	     19.93543910	      0.34793905	     29.02837578	      0.00000000	      0.00000000	     10.77895382	     29.95068470	     39.93236841	     54.91119130	      0.95838108	     -9.36016123	      0.00000000	      0.00000000	     89.99000826	     89.98451725	     89.99000672	     51.93065853	     60.68098619	     45.26692422	     11.37797229	      1.44355233	      0.00000000	      0.00000000	    -56.45174540	    -18.46042961	    -89.06377135	     84.93734870	     89.20346903	      0.00000000	      0.00000000
      9.38500000	     -9.68843837	    -16.25407774	    -91.77691968	      0.44818136	      0.93256445	     -0.47068696	    -29.98561991	     -4.90348092	    -39.95559940	     19.28716519	      0.33662454	     28.82385683	      0.00000000	      0.00000000	     10.99455746	     29.94493866	     39.93466779	     54.99462707	      0.95983731	     -9.66275450	      0.00000000	      0.00000000	     89.99000458	     89.98441880	     89.99000310	     51.47859081	     60.30584378	     47.30376044	     11.86087552	      1.45473826	      0.00000000	      0.00000000	    -56.63899716	    -18.13636441	    -89.12476854	     85.11524150	     89.20086115	      0.00000000	      0.00000000
      9.39000000	     -9.74651996	    -16.10198379	    -91.70704475	      0.44841415	      0.93318690	     -0.47083173	    -29.98556409	     -4.60405016	    -39.95553538	     18.69899606	      0.32635905	     28.54785571	      0.00000000	      0.00000000	     11.19162806	     29.93824125	     39.93664572	     55.07181652	      0.96118452	    -10.01007045	      0.00000000	      0.00000000	     89.98999522	     89.98432544	     89.98999383	     51.32729967	     60.36675916	     47.34681430	     11.85718181	      1.45770796	      0.00000000	      0.00000000	    -56.85356195	    -17.82059880	    -89.16988126	     85.34233461	     89.19879704	      0.00000000	      0.00000000
